<svg width="65" height="64" viewBox="0 0 65 64" fill="none" xmlns="http://www.w3.org/2000/svg">
<path d="M57.9133 28.9867L53.86 24.9333C53.1667 24.24 52.6067 22.88 52.6067 21.92V16.16C52.6067 13.8133 50.6867 11.8933 48.34 11.8933H42.6067C41.6467 11.8933 40.2867 11.3333 39.5933 10.64L35.54 6.58668C33.8867 4.93335 31.1667 4.93335 29.5133 6.58668L25.4067 10.64C24.74 11.3333 23.38 11.8933 22.3933 11.8933H16.66C14.3133 11.8933 12.3933 13.8133 12.3933 16.16V21.8933C12.3933 22.8533 11.8333 24.2133 11.14 24.9067L7.08668 28.96C5.43335 30.6133 5.43335 33.3333 7.08668 34.9867L11.14 39.04C11.8333 39.7333 12.3933 41.0933 12.3933 42.0533V47.7867C12.3933 50.1333 14.3133 52.0533 16.66 52.0533H22.3933C23.3533 52.0533 24.7133 52.6133 25.4067 53.3067L29.46 57.36C31.1133 59.0133 33.8333 59.0133 35.4867 57.36L39.54 53.3067C40.2333 52.6133 41.5933 52.0533 42.5533 52.0533H48.2867C50.6333 52.0533 52.5533 50.1333 52.5533 47.7867V42.0533C52.5533 41.0933 53.1133 39.7333 53.8067 39.04L57.86 34.9867C59.5933 33.36 59.5933 30.64 57.9133 28.9867ZM21.8333 24C21.8333 22.5333 23.0333 21.3333 24.5 21.3333C25.9667 21.3333 27.1667 22.5333 27.1667 24C27.1667 25.4667 25.9933 26.6667 24.5 26.6667C23.0333 26.6667 21.8333 25.4667 21.8333 24ZM25.9133 41.4133C25.5133 41.8133 25.0067 42 24.5 42C23.9933 42 23.4867 41.8133 23.0867 41.4133C22.3133 40.64 22.3133 39.36 23.0867 38.5867L39.0867 22.5867C39.86 21.8133 41.14 21.8133 41.9133 22.5867C42.6867 23.36 42.6867 24.64 41.9133 25.4133L25.9133 41.4133ZM40.5 42.6667C39.0067 42.6667 37.8067 41.4667 37.8067 40C37.8067 38.5333 39.0067 37.3333 40.4733 37.3333C41.94 37.3333 43.14 38.5333 43.14 40C43.14 41.4667 41.9667 42.6667 40.5 42.6667Z" fill="white"/>
</svg>
