<svg width="40" height="40" viewBox="0 0 40 40" fill="none" xmlns="http://www.w3.org/2000/svg">
<path d="M35.8832 18.1166L33.3499 15.5832C32.9166 15.1499 32.5666 14.2999 32.5666 13.6999V10.0999C32.5666 8.63322 31.3666 7.43322 29.8999 7.43322H26.3166C25.7166 7.43322 24.8666 7.08322 24.4332 6.64989L21.8999 4.11655C20.8666 3.08322 19.1666 3.08322 18.1332 4.11655L15.5666 6.64989C15.1499 7.08322 14.2999 7.43322 13.6832 7.43322H10.0999C8.63322 7.43322 7.43322 8.63322 7.43322 10.0999V13.6832C7.43322 14.2832 7.08322 15.1332 6.64989 15.5666L4.11655 18.0999C3.08322 19.1332 3.08322 20.8332 4.11655 21.8666L6.64989 24.3999C7.08322 24.8332 7.43322 25.6832 7.43322 26.2832V29.8666C7.43322 31.3332 8.63322 32.5332 10.0999 32.5332H13.6832C14.2832 32.5332 15.1332 32.8832 15.5666 33.3166L18.0999 35.8499C19.1332 36.8832 20.8332 36.8832 21.8666 35.8499L24.3999 33.3166C24.8332 32.8832 25.6832 32.5332 26.2832 32.5332H29.8666C31.3332 32.5332 32.5332 31.3332 32.5332 29.8666V26.2832C32.5332 25.6832 32.8832 24.8332 33.3166 24.3999L35.8499 21.8666C36.9332 20.8499 36.9332 19.1499 35.8832 18.1166ZM13.3332 14.9999C13.3332 14.0832 14.0832 13.3332 14.9999 13.3332C15.9166 13.3332 16.6666 14.0832 16.6666 14.9999C16.6666 15.9166 15.9332 16.6666 14.9999 16.6666C14.0832 16.6666 13.3332 15.9166 13.3332 14.9999ZM15.8832 25.8832C15.6332 26.1332 15.3166 26.2499 14.9999 26.2499C14.6832 26.2499 14.3666 26.1332 14.1166 25.8832C13.6332 25.3999 13.6332 24.5999 14.1166 24.1166L24.1166 14.1166C24.5999 13.6332 25.3999 13.6332 25.8832 14.1166C26.3666 14.5999 26.3666 15.3999 25.8832 15.8832L15.8832 25.8832ZM24.9999 26.6666C24.0666 26.6666 23.3166 25.9166 23.3166 24.9999C23.3166 24.0832 24.0666 23.3332 24.9832 23.3332C25.8999 23.3332 26.6499 24.0832 26.6499 24.9999C26.6499 25.9166 25.9166 26.6666 24.9999 26.6666Z" fill="#454545"/>
</svg>
