<svg width="20" height="20" viewBox="0 0 20 20" fill="none" xmlns="http://www.w3.org/2000/svg">
<path d="M5 14.9787C5.10725 16.0691 5.34963 16.803 5.89743 17.3508C6.87997 18.3333 8.46135 18.3333 11.6241 18.3333C14.7869 18.3333 16.3682 18.3333 17.3508 17.3508C18.3333 16.3682 18.3333 14.7869 18.3333 11.6241C18.3333 8.46135 18.3333 6.87997 17.3508 5.89743C16.803 5.34963 16.0691 5.10725 14.9787 5" stroke="#101010" stroke-width="1.5"/>
<path d="M1.66699 8.33335C1.66699 5.19066 1.66699 3.61931 2.6433 2.643C3.61961 1.66669 5.19096 1.66669 8.33366 1.66669C11.4764 1.66669 13.0477 1.66669 14.024 2.643C15.0003 3.61931 15.0003 5.19066 15.0003 8.33335C15.0003 11.476 15.0003 13.0474 14.024 14.0237C13.0477 15 11.4764 15 8.33366 15C5.19096 15 3.61961 15 2.6433 14.0237C1.66699 13.0474 1.66699 11.476 1.66699 8.33335Z" stroke="#101010" stroke-width="1.5"/>
<path d="M1.66699 9.26545C2.18284 9.19989 2.70436 9.16749 3.22675 9.16864C5.4367 9.12777 7.59252 9.7303 9.30955 10.8687C10.902 11.9245 12.0209 13.3775 12.5003 15" stroke="#101010" stroke-width="1.5" stroke-linejoin="round"/>
<path d="M10.8338 5.83337H10.8413" stroke="#101010" stroke-width="2" stroke-linecap="round" stroke-linejoin="round"/>
</svg>
