<svg width="65" height="64" viewBox="0 0 65 64" fill="none" xmlns="http://www.w3.org/2000/svg">
<g clip-path="url(#clip0_88_3484)">
<path d="M58.6067 55.36L56.6867 53.44C57.6734 51.9466 58.2601 50.1333 58.2601 48.2133C58.2601 42.9333 53.9934 38.6666 48.7134 38.6666C43.4334 38.6666 39.1667 42.9333 39.1667 48.2133C39.1667 53.4933 43.4334 57.76 48.7134 57.76C50.6601 57.76 52.4467 57.1733 53.9401 56.1866L55.8601 58.1066C56.2334 58.48 56.7401 58.6666 57.2201 58.6666C57.7267 58.6666 58.2067 58.48 58.5801 58.1066C59.3534 57.3333 59.3534 56.1066 58.6067 55.36Z" fill="white"/>
<path d="M5.91344 39.0133C5.91344 39.0933 5.86011 39.2 5.86011 39.28C8.31344 44.1866 12.3134 48.2133 17.2201 50.64C17.3001 50.64 17.4068 50.5866 17.4868 50.5866C16.5801 47.4933 15.8868 44.32 15.3801 41.1466C12.1801 40.6133 9.00677 39.92 5.91344 39.0133Z" fill="white"/>
<path d="M51.3532 17.1467C48.8465 11.8933 44.6065 7.65334 39.3799 5.17334C40.3399 8.34667 41.1399 11.6 41.6732 14.8533C44.9265 15.3867 48.1799 16.16 51.3532 17.1467Z" fill="white"/>
<path d="M5.64673 17.1467C8.84673 16.1867 12.1001 15.3867 15.3534 14.8534C15.8867 11.6801 16.5534 8.53338 17.4601 5.44005C17.3801 5.44005 17.2734 5.38672 17.1934 5.38672C12.1801 7.86672 8.10006 12.0534 5.64673 17.1467Z" fill="white"/>
<path d="M37.3534 14.2933C36.7134 10.8266 35.9134 7.35996 34.7667 3.99996C34.7134 3.81329 34.7134 3.65329 34.6867 3.43996C32.7134 2.95996 30.6334 2.66663 28.5001 2.66663C26.3401 2.66663 24.2867 2.95996 22.2867 3.46663C22.2601 3.65329 22.2867 3.81329 22.2334 4.02663C21.1134 7.38663 20.2867 10.8266 19.6467 14.2933C25.5401 13.6533 31.4601 13.6533 37.3534 14.2933Z" fill="white"/>
<path d="M14.7934 19.1466C11.3001 19.7866 7.88675 20.6133 4.50008 21.7333C4.31341 21.7866 4.15341 21.7866 3.96675 21.8133C3.46008 23.7866 3.16675 25.8666 3.16675 27.9999C3.16675 30.1599 3.46008 32.2133 3.96675 34.2133C4.15341 34.2399 4.31341 34.2133 4.52675 34.2666C7.88675 35.3866 11.3267 36.2133 14.8201 36.8533C14.1534 30.9599 14.1534 25.0399 14.7934 19.1466Z" fill="white"/>
<path d="M53.0333 21.8133C52.8466 21.8133 52.6866 21.7866 52.4733 21.7333C49.1133 20.6133 45.6466 19.7866 42.1799 19.1466C42.8466 25.0399 42.8466 30.9599 42.1799 36.8266C45.6466 36.1866 49.1133 35.3866 52.4733 34.2399C52.6599 34.1866 52.8199 34.2133 53.0333 34.1866C53.5133 32.1866 53.8333 30.1333 53.8333 27.9733C53.8333 25.8666 53.5399 23.8133 53.0333 21.8133Z" fill="white"/>
<path d="M19.6467 41.7067C20.2867 45.2001 21.0867 48.6401 22.2334 52.0001C22.2867 52.1867 22.2601 52.3467 22.2867 52.56C24.2867 53.04 26.3401 53.3334 28.5001 53.3334C30.6334 53.3334 32.7134 53.0401 34.6867 52.5334C34.7134 52.3467 34.7134 52.1867 34.7667 51.9734C35.8867 48.6134 36.7134 45.1734 37.3534 41.6801C34.4201 42.0001 31.4601 42.2401 28.5001 42.2401C25.5401 42.2401 22.5801 42.0267 19.6467 41.7067Z" fill="white"/>
<path d="M19.0333 18.5333C18.2333 24.8267 18.2333 31.1734 19.0333 37.4934C25.3267 38.2934 31.6734 38.2934 37.9934 37.4934C38.7934 31.2 38.7934 24.8533 37.9934 18.5333C31.6734 17.7333 25.3267 17.7333 19.0333 18.5333Z" fill="white"/>
</g>
<defs>
<clipPath id="clip0_88_3484">
<rect width="64" height="64" fill="white" transform="translate(0.5)"/>
</clipPath>
</defs>
</svg>
