<svg width="40" height="40" viewBox="0 0 40 40" fill="none" xmlns="http://www.w3.org/2000/svg">
<g clip-path="url(#clip0_76_2048)">
<path d="M36.3168 34.6L35.1167 33.4C35.7334 32.4666 36.1001 31.3333 36.1001 30.1333C36.1001 26.8333 33.4334 24.1666 30.1334 24.1666C26.8334 24.1666 24.1667 26.8333 24.1667 30.1333C24.1667 33.4333 26.8334 36.1 30.1334 36.1C31.3501 36.1 32.4668 35.7333 33.4001 35.1166L34.6001 36.3166C34.8334 36.55 35.1501 36.6666 35.4501 36.6666C35.7667 36.6666 36.0667 36.55 36.3001 36.3166C36.7834 35.8333 36.7834 35.0666 36.3168 34.6Z" fill="#454545"/>
<path d="M3.38343 24.3833C3.38343 24.4333 3.3501 24.5 3.3501 24.55C4.88343 27.6166 7.38343 30.1333 10.4501 31.65C10.5001 31.65 10.5668 31.6166 10.6168 31.6166C10.0501 29.6833 9.61676 27.7 9.3001 25.7166C7.3001 25.3833 5.31676 24.95 3.38343 24.3833Z" fill="#454545"/>
<path d="M31.7834 10.7166C30.2167 7.43328 27.5667 4.78328 24.3 3.23328C24.9 5.21661 25.4 7.24994 25.7334 9.28328C27.7667 9.61661 29.8 10.0999 31.7834 10.7166Z" fill="#454545"/>
<path d="M3.21655 10.7167C5.21655 10.1167 7.24989 9.6167 9.28322 9.28337C9.61655 7.30003 10.0332 5.33337 10.5999 3.40003C10.5499 3.40003 10.4832 3.3667 10.4332 3.3667C7.29989 4.9167 4.74989 7.53337 3.21655 10.7167Z" fill="#454545"/>
<path d="M23.0332 8.93329C22.6332 6.76663 22.1332 4.59996 21.4166 2.49996C21.3832 2.38329 21.3832 2.28329 21.3666 2.14996C20.1332 1.84996 18.8332 1.66663 17.4999 1.66663C16.1499 1.66663 14.8666 1.84996 13.6166 2.16663C13.5999 2.28329 13.6166 2.38329 13.5832 2.51663C12.8832 4.61663 12.3666 6.76663 11.9666 8.93329C15.6499 8.53329 19.3499 8.53329 23.0332 8.93329Z" fill="#454545"/>
<path d="M8.93342 11.9667C6.75008 12.3667 4.61675 12.8833 2.50008 13.5833C2.38341 13.6167 2.28341 13.6167 2.16675 13.6333C1.85008 14.8667 1.66675 16.1667 1.66675 17.5C1.66675 18.85 1.85008 20.1333 2.16675 21.3833C2.28341 21.4 2.38341 21.3833 2.51675 21.4167C4.61675 22.1167 6.76675 22.6333 8.95008 23.0333C8.53341 19.35 8.53342 15.65 8.93342 11.9667Z" fill="#454545"/>
<path d="M32.8334 13.6333C32.7167 13.6333 32.6167 13.6167 32.4834 13.5833C30.3834 12.8833 28.2167 12.3667 26.05 11.9667C26.4667 15.65 26.4667 19.35 26.05 23.0167C28.2167 22.6167 30.3834 22.1167 32.4834 21.4C32.6 21.3667 32.7 21.3833 32.8334 21.3667C33.1334 20.1167 33.3334 18.8333 33.3334 17.4833C33.3334 16.1667 33.15 14.8833 32.8334 13.6333Z" fill="#454545"/>
<path d="M11.9666 26.0667C12.3666 28.25 12.8666 30.4 13.5832 32.5C13.6166 32.6167 13.5999 32.7167 13.6166 32.85C14.8666 33.15 16.1499 33.3334 17.4999 33.3334C18.8332 33.3334 20.1332 33.15 21.3666 32.8334C21.3832 32.7167 21.3832 32.6167 21.4166 32.4834C22.1166 30.3834 22.6332 28.2334 23.0332 26.05C21.1999 26.25 19.3499 26.4 17.4999 26.4C15.6499 26.4 13.7999 26.2667 11.9666 26.0667Z" fill="#454545"/>
<path d="M11.5833 11.5834C11.0833 15.5167 11.0833 19.4834 11.5833 23.4334C15.5166 23.9334 19.4833 23.9334 23.4333 23.4334C23.9333 19.5 23.9333 15.5334 23.4333 11.5834C19.4833 11.0834 15.5166 11.0834 11.5833 11.5834Z" fill="#454545"/>
</g>
<defs>
<clipPath id="clip0_76_2048">
<rect width="40" height="40" fill="white"/>
</clipPath>
</defs>
</svg>
