<svg width="48" height="49" viewBox="0 0 48 49" fill="none" xmlns="http://www.w3.org/2000/svg">
<circle cx="24" cy="24.5" r="24" fill="#EDF1F4"/>
<path d="M27 30.125C26.9264 31.9769 25.3831 33.5494 23.3156 33.4988C22.8346 33.487 22.2401 33.3194 21.0511 32.984C18.1896 32.1768 15.7056 30.8203 15.1096 27.7815C15 27.223 15 26.5944 15 25.3373L15 23.6627C15 22.4056 15 21.777 15.1096 21.2185C15.7056 18.1797 18.1896 16.8232 21.0511 16.016C22.2401 15.6806 22.8346 15.513 23.3156 15.5012C25.3831 15.4506 26.9264 17.0231 27 18.875" stroke="#141B34" stroke-width="1.5" stroke-linecap="round"/>
<path d="M33 24.5H22M33 24.5C33 23.7998 31.0057 22.4915 30.5 22M33 24.5C33 25.2002 31.0057 26.5085 30.5 27" stroke="#141B34" stroke-width="1.5" stroke-linecap="round" stroke-linejoin="round"/>
</svg>
