<svg width="40" height="40" viewBox="0 0 40 40" fill="none" xmlns="http://www.w3.org/2000/svg">
<path d="M10.1833 9.26674C12.1666 9.50007 13.5666 10.2334 14.9999 11.6667L16.6666 13.3334L11.2499 18.7501C11.7666 18.9501 12.1833 19.2001 12.5333 19.4001C13.1499 19.7834 13.5166 20.0001 14.4499 20.0001C15.3833 20.0001 15.7499 19.7834 16.3666 19.4001C17.1333 18.9501 18.1666 18.3334 20.0166 18.3334C21.8666 18.3334 22.8999 18.9501 23.6499 19.4001C24.2666 19.7667 24.6499 20.0001 25.5666 20.0001C26.4833 20.0001 26.8666 19.7834 27.4833 19.4001C27.6833 19.2834 27.9166 19.1501 28.1666 19.0167L17.4666 8.33341C15.3666 6.23341 13.3999 5.33341 10.4999 5.08341C9.33325 4.98341 8.33325 5.93341 8.33325 7.10007V7.25007C8.33325 8.30007 9.14992 9.13341 10.1833 9.26674ZM35.5833 31.5167C35.2999 31.4167 35.0499 31.2667 34.7499 31.0667C33.9999 30.6167 32.9666 30.0001 31.1166 30.0001C29.2666 30.0001 28.2333 30.6167 27.4833 31.0667C26.8666 31.4501 26.4833 31.6667 25.5666 31.6667C24.6499 31.6667 24.2666 31.4334 23.6499 31.0667C22.8999 30.6167 21.8666 30.0001 20.0166 30.0001C18.1666 30.0001 17.1333 30.6167 16.3666 31.0667C15.7499 31.4501 15.3833 31.6667 14.4499 31.6667C13.5166 31.6667 13.1499 31.4501 12.5333 31.0667C11.7833 30.6167 10.7499 30.0001 8.89992 30.0001C7.04992 30.0001 6.01659 30.6167 5.24992 31.0667C4.94992 31.2501 4.69992 31.4001 4.41659 31.5167C3.78325 31.7334 3.33325 32.2667 3.33325 32.9334V33.1334C3.33325 34.2501 4.43325 35.0167 5.49992 34.6501C6.11659 34.4334 6.58325 34.1501 6.98325 33.9167C7.59992 33.5501 7.98325 33.3334 8.89992 33.3334C9.81659 33.3334 10.1999 33.5501 10.8166 33.9334C11.5666 34.3834 12.5999 35.0001 14.4499 35.0001C16.2999 35.0001 17.3333 34.3834 18.0999 33.9334C18.7166 33.5501 19.0833 33.3334 20.0166 33.3334C20.9333 33.3334 21.3166 33.5667 21.9333 33.9334C22.6833 34.3834 23.7166 35.0001 25.5666 35.0001C27.4166 35.0001 28.4333 34.3834 29.1999 33.9334C29.8166 33.5501 30.1833 33.3334 31.1166 33.3334C32.0333 33.3334 32.4166 33.5667 33.0333 33.9334C33.4166 34.1667 33.8833 34.4501 34.4999 34.6667C35.5499 35.0334 36.6666 34.2667 36.6666 33.1501V32.9501C36.6666 32.2667 36.2166 31.7334 35.5833 31.5167ZM5.18325 27.2501C5.96659 27.0334 6.53325 26.7001 6.99992 26.4334C7.61659 26.0501 7.99992 25.8334 8.91659 25.8334C9.83325 25.8334 10.2166 26.0667 10.8333 26.4334C11.5833 26.8834 12.6166 27.5001 14.4666 27.5001C16.3166 27.5001 17.3499 26.8834 18.0999 26.4334C18.7166 26.0501 19.0833 25.8334 20.0166 25.8334C20.9333 25.8334 21.3166 26.0667 21.9333 26.4334C22.6833 26.8834 23.7166 27.5001 25.5666 27.5001C27.4166 27.5001 28.4499 26.8834 29.1999 26.4334C29.8166 26.0501 30.1833 25.8334 31.1166 25.8334C32.0333 25.8334 32.4166 26.0667 33.0333 26.4334C33.4166 26.6667 33.8666 26.9334 34.4499 27.1501C34.6947 27.2384 34.9572 27.2669 35.2152 27.2331C35.4733 27.1992 35.7195 27.1041 35.9333 26.9556C36.147 26.8071 36.3221 26.6096 36.4439 26.3796C36.5657 26.1495 36.6306 25.8937 36.6333 25.6334V25.4334C36.6333 24.7667 36.1833 24.2334 35.5666 24.0001C35.2833 23.9001 35.0333 23.7501 34.7166 23.5667C33.9666 23.1167 32.9333 22.5001 31.0833 22.5001C29.2333 22.5001 28.1999 23.1167 27.4499 23.5667C26.8333 23.9501 26.4499 24.1667 25.5333 24.1667C24.6166 24.1667 24.2333 23.9334 23.6166 23.5667C22.8666 23.1167 21.8333 22.5001 19.9833 22.5001C18.1333 22.5001 17.0999 23.1167 16.3499 23.5667C15.7333 23.9501 15.3666 24.1667 14.4333 24.1667C13.5166 24.1667 13.1333 23.9334 12.5166 23.5667C11.7666 23.1167 10.7333 22.5001 8.88325 22.5001C7.03325 22.5001 5.99992 23.1167 5.24992 23.5667C4.94992 23.7501 4.69992 23.9001 4.41659 24.0167C3.78325 24.2334 3.33325 24.7667 3.33325 25.4334V25.8167C3.33325 26.7834 4.24992 27.5167 5.18325 27.2501Z" fill="#454545"/>
<path d="M27.4999 13.3333C29.8011 13.3333 31.6666 11.4679 31.6666 9.16667C31.6666 6.86548 29.8011 5 27.4999 5C25.1987 5 23.3333 6.86548 23.3333 9.16667C23.3333 11.4679 25.1987 13.3333 27.4999 13.3333Z" fill="#454545"/>
</svg>
