<svg width="64" height="64" viewBox="0 0 64 64" fill="none" xmlns="http://www.w3.org/2000/svg">
<path d="M16.2933 14.8266C19.4666 15.1999 21.7066 16.3733 23.9999 18.6666L26.6666 21.3333L17.9999 29.9999C18.8266 30.3199 19.4933 30.7199 20.0533 31.0399C21.0399 31.6533 21.6266 31.9999 23.1199 31.9999C24.6133 31.9999 25.1999 31.6533 26.1866 31.0399C27.4133 30.3199 29.0666 29.3333 32.0266 29.3333C34.9866 29.3333 36.6399 30.3199 37.8399 31.0399C38.8266 31.6266 39.4399 31.9999 40.9066 31.9999C42.3733 31.9999 42.9866 31.6533 43.9733 31.0399C44.2933 30.8533 44.6666 30.6399 45.0666 30.4266L27.9466 13.3333C24.5866 9.97328 21.4399 8.53328 16.7999 8.13328C14.9333 7.97328 13.3333 9.49328 13.3333 11.3599V11.5999C13.3333 13.2799 14.6399 14.6133 16.2933 14.8266ZM56.9333 50.4266C56.4799 50.2666 56.0799 50.0266 55.5999 49.7066C54.3999 48.9866 52.7466 47.9999 49.7866 47.9999C46.8266 47.9999 45.1733 48.9866 43.9733 49.7066C42.9866 50.3199 42.3733 50.6666 40.9066 50.6666C39.4399 50.6666 38.8266 50.2933 37.8399 49.7066C36.6399 48.9866 34.9866 47.9999 32.0266 47.9999C29.0666 47.9999 27.4133 48.9866 26.1866 49.7066C25.1999 50.3199 24.6133 50.6666 23.1199 50.6666C21.6266 50.6666 21.0399 50.3199 20.0533 49.7066C18.8533 48.9866 17.1999 47.9999 14.2399 47.9999C11.2799 47.9999 9.62659 48.9866 8.39992 49.7066C7.91992 49.9999 7.51992 50.2399 7.06659 50.4266C6.05325 50.7733 5.33325 51.6266 5.33325 52.6933V53.0133C5.33325 54.7999 7.09325 56.0266 8.79992 55.44C9.78659 55.0933 10.5333 54.6399 11.1733 54.2666C12.1599 53.68 12.7733 53.3333 14.2399 53.3333C15.7066 53.3333 16.3199 53.68 17.3066 54.2933C18.5066 55.0133 20.1599 56 23.1199 56C26.0799 56 27.7333 55.0133 28.9599 54.2933C29.9466 53.68 30.5333 53.3333 32.0266 53.3333C33.4933 53.3333 34.1066 53.7066 35.0933 54.2933C36.2933 55.0133 37.9466 56 40.9066 56C43.8666 56 45.4933 55.0133 46.7199 54.2933C47.7066 53.68 48.2933 53.3333 49.7866 53.3333C51.2533 53.3333 51.8666 53.7066 52.8533 54.2933C53.4666 54.6666 54.2133 55.1199 55.1999 55.4666C56.8799 56.0533 58.6666 54.8266 58.6666 53.0399V52.72C58.6666 51.6266 57.9466 50.7733 56.9333 50.4266ZM8.29325 43.5999C9.54659 43.2533 10.4533 42.7199 11.1999 42.2933C12.1866 41.6799 12.7999 41.3333 14.2666 41.3333C15.7333 41.3333 16.3466 41.7066 17.3333 42.2933C18.5333 43.0133 20.1866 43.9999 23.1466 43.9999C26.1066 43.9999 27.7599 43.0133 28.9599 42.2933C29.9466 41.6799 30.5333 41.3333 32.0266 41.3333C33.4933 41.3333 34.1066 41.7066 35.0933 42.2933C36.2933 43.0133 37.9466 43.9999 40.9066 43.9999C43.8666 43.9999 45.5199 43.0133 46.7199 42.2933C47.7066 41.6799 48.2933 41.3333 49.7866 41.3333C51.2533 41.3333 51.8666 41.7066 52.8533 42.2933C53.4666 42.6666 54.1866 43.0933 55.1199 43.4399C55.5116 43.5813 55.9315 43.6269 56.3444 43.5727C56.7573 43.5186 57.1513 43.3664 57.4933 43.1288C57.8353 42.8912 58.1155 42.5752 58.3103 42.2071C58.5052 41.8391 58.609 41.4297 58.6133 41.0133V40.6933C58.6133 39.6266 57.8933 38.7733 56.9066 38.3999C56.4533 38.2399 56.0533 37.9999 55.5466 37.7066C54.3466 36.9866 52.6933 35.9999 49.7333 35.9999C46.7733 35.9999 45.1199 36.9866 43.9199 37.7066C42.9333 38.3199 42.3199 38.6666 40.8533 38.6666C39.3866 38.6666 38.7733 38.2933 37.7866 37.7066C36.5866 36.9866 34.9333 35.9999 31.9733 35.9999C29.0133 35.9999 27.3599 36.9866 26.1599 37.7066C25.1733 38.3199 24.5866 38.6666 23.0933 38.6666C21.6266 38.6666 21.0133 38.2933 20.0266 37.7066C18.8266 36.9866 17.1733 35.9999 14.2133 35.9999C11.2533 35.9999 9.59992 36.9866 8.39992 37.7066C7.91992 37.9999 7.51992 38.2399 7.06659 38.4266C6.05325 38.7733 5.33325 39.6266 5.33325 40.6933V41.3066C5.33325 42.8533 6.79992 44.0266 8.29325 43.5999Z" fill="#F8F8F8"/>
<path d="M43.9999 21.3333C47.6818 21.3333 50.6666 18.3486 50.6666 14.6667C50.6666 10.9848 47.6818 8 43.9999 8C40.318 8 37.3333 10.9848 37.3333 14.6667C37.3333 18.3486 40.318 21.3333 43.9999 21.3333Z" fill="#F8F8F8"/>
</svg>
