<svg width="20" height="20" viewBox="0 0 20 20" fill="none" xmlns="http://www.w3.org/2000/svg">
<path d="M15.9931 7.86763L14.3554 6.22414C13.1754 5.03998 12.7128 4.40296 12.0738 4.62816C11.2771 4.90896 11.5394 6.68075 11.5394 7.2789C10.3006 7.2789 9.01264 7.1688 7.79154 7.39821C3.76049 8.15551 2.5 11.4294 2.5 15C3.64091 14.1918 4.7807 13.3308 6.15194 12.9563C7.86364 12.4887 9.77532 12.7118 11.5394 12.7118C11.5394 13.31 11.2771 15.0818 12.0738 15.3626C12.7979 15.6177 13.1754 14.9508 14.3554 13.7666L15.9931 12.1231C16.9977 11.115 17.5 10.611 17.5 9.99537C17.5 9.37977 16.9977 8.87572 15.9931 7.86763Z" stroke="#101010" stroke-width="1.5" stroke-linecap="round" stroke-linejoin="round"/>
</svg>
