<svg width="20" height="21" viewBox="0 0 20 21" fill="none" xmlns="http://www.w3.org/2000/svg">
<path d="M11.3481 18.3058C10.9867 18.6442 10.5037 18.8333 10.0009 18.8333C9.49821 18.8333 9.01515 18.6442 8.65374 18.3058C5.34418 15.1883 0.908969 11.7058 3.07189 6.64971C4.24136 3.91595 7.04862 2.16666 10.0009 2.16666C12.9532 2.16666 15.7605 3.91595 16.93 6.64971C19.0902 11.6994 14.6658 15.1991 11.3481 18.3058Z" stroke="#5E5E5E" stroke-width="1.5"/>
<path d="M12.9163 9.66667C12.9163 11.2775 11.6105 12.5833 9.99967 12.5833C8.38884 12.5833 7.08301 11.2775 7.08301 9.66667C7.08301 8.05584 8.38884 6.75 9.99967 6.75C11.6105 6.75 12.9163 8.05584 12.9163 9.66667Z" stroke="#5E5E5E" stroke-width="1.5"/>
</svg>
