<svg width="65" height="64" viewBox="0 0 65 64" fill="none" xmlns="http://www.w3.org/2000/svg">
<path d="M47.2466 20.72C47.06 20.6934 46.8733 20.6934 46.6866 20.72C42.5533 20.5867 39.2733 17.2 39.2733 13.04C39.2733 8.80004 42.7133 5.33337 46.98 5.33337C51.22 5.33337 54.6866 8.77337 54.6866 13.04C54.66 17.2 51.38 20.5867 47.2466 20.72Z" fill="white"/>
<path d="M55.9401 39.2C52.9534 41.2 48.7667 41.9466 44.9001 41.44C45.9134 39.2533 46.4467 36.8266 46.4734 34.2666C46.4734 31.6 45.8867 29.0666 44.7667 26.8533C48.7134 26.32 52.9001 27.0666 55.9134 29.0666C60.1267 31.84 60.1267 36.4 55.9401 39.2Z" fill="white"/>
<path d="M17.6733 20.72C17.86 20.6934 18.0467 20.6934 18.2333 20.72C22.3667 20.5867 25.6467 17.2 25.6467 13.04C25.6467 8.77337 22.2067 5.33337 17.94 5.33337C13.7 5.33337 10.26 8.77337 10.26 13.04C10.26 17.2 13.54 20.5867 17.6733 20.72Z" fill="white"/>
<path d="M17.9666 34.2667C17.9666 36.8533 18.5266 39.3067 19.5399 41.52C15.7799 41.92 11.8599 41.12 8.97995 39.2267C4.76661 36.4267 4.76661 31.8667 8.97995 29.0667C11.8333 27.1467 15.8599 26.3733 19.6466 26.8C18.5533 29.04 17.9666 31.5733 17.9666 34.2667Z" fill="white"/>
<path d="M32.82 42.32C32.6067 42.2933 32.3667 42.2933 32.1267 42.32C27.22 42.16 23.3 38.1333 23.3 33.1733C23.3267 28.1067 27.4067 24 32.5 24C37.5667 24 41.6734 28.1067 41.6734 33.1733C41.6467 38.1333 37.7534 42.16 32.82 42.32Z" fill="white"/>
<path d="M24.1533 47.84C20.1266 50.5334 20.1266 54.96 24.1533 57.6267C28.74 60.6934 36.26 60.6934 40.8466 57.6267C44.8733 54.9334 44.8733 50.5067 40.8466 47.84C36.2866 44.7734 28.7666 44.7734 24.1533 47.84Z" fill="white"/>
</svg>
