<svg width="16" height="16" viewBox="0 0 16 16" fill="none" xmlns="http://www.w3.org/2000/svg">
<path d="M13.3334 4.66671V11.3334C13.3334 14 12.6667 14.6667 10.0001 14.6667H6.00008C3.33341 14.6667 2.66675 14 2.66675 11.3334V4.66671C2.66675 2.00004 3.33341 1.33337 6.00008 1.33337H10.0001C12.6667 1.33337 13.3334 2.00004 13.3334 4.66671Z" stroke="#108975" stroke-linecap="round" stroke-linejoin="round"/>
<path d="M9.33341 3.66675H6.66675" stroke="#108975" stroke-linecap="round" stroke-linejoin="round"/>
<path d="M8.00013 12.7334C8.57082 12.7334 9.03346 12.2708 9.03346 11.7001C9.03346 11.1294 8.57082 10.6667 8.00013 10.6667C7.42944 10.6667 6.9668 11.1294 6.9668 11.7001C6.9668 12.2708 7.42944 12.7334 8.00013 12.7334Z" stroke="#108975" stroke-linecap="round" stroke-linejoin="round"/>
</svg>
