<svg width="20" height="21" viewBox="0 0 20 21" fill="none" xmlns="http://www.w3.org/2000/svg">
<path d="M11.44 3.37014L12.9065 6.32739C13.1065 6.73905 13.6398 7.13391 14.0897 7.20952L16.7478 7.65479C18.4476 7.94043 18.8475 9.18382 17.6227 10.4104L15.5562 12.4939C15.2063 12.8468 15.0146 13.5273 15.1229 14.0145L15.7146 16.5937C16.1812 18.6352 15.1063 19.425 13.3148 18.358L10.8234 16.871C10.3735 16.6021 9.63189 16.6021 9.17361 16.871L6.68222 18.358C4.89908 19.425 3.81587 18.6268 4.28248 16.5937L4.87408 14.0145C4.9824 13.5273 4.79076 12.8468 4.4408 12.4939L2.37436 10.4104C1.15783 9.18382 1.54945 7.94043 3.24926 7.65479L5.9073 7.20952C6.34892 7.13391 6.88219 6.73905 7.08217 6.32739L8.54868 3.37014C9.34859 1.7655 10.6484 1.7655 11.44 3.37014Z" stroke="#5E5E5E" stroke-width="1.5" stroke-linecap="round" stroke-linejoin="round"/>
</svg>
